<svg width="141" height="34" viewBox="0 0 141 34" fill="none" xmlns="http://www.w3.org/2000/svg">
<path d="M5.08594 34H0.585938L14.8125 0.484375H19.6172L33.9141 34H29.1094L24.7734 23.4531H13.6875L14.8828 19.9375H23.3203L17.0625 4.75L5.08594 34Z" fill="#141414"/>
<path d="M38.3756 34V9.39062H41.3053L42.0788 12.5312C44.5944 10.4375 47.36 9.39062 50.3756 9.39062C56.5163 9.39062 59.5866 12.4453 59.5866 18.5547V34H55.2506V18.4844C55.2506 14.8281 53.4303 13 49.7897 13C47.3053 13 44.9459 14.0391 42.7116 16.1172V34H38.3756Z" fill="#141414"/>
<path d="M65.8294 26.5703C65.8294 21.5234 69.1575 19 75.8138 19C77.9544 19 80.095 19.1562 82.2356 19.4688V17.1484C82.2356 14.3203 80.0247 12.9062 75.6028 12.9062C73.0716 12.9062 70.4778 13.2969 67.8216 14.0781V10.5625C70.4778 9.78125 73.0716 9.39062 75.6028 9.39062C82.9153 9.39062 86.5716 11.9375 86.5716 17.0312V34H84.1341L82.6341 31.5625C80.1809 33.1875 77.5091 34 74.6184 34C68.7591 34 65.8294 31.5234 65.8294 26.5703ZM75.8138 22.5156C72.0481 22.5156 70.1653 23.8438 70.1653 26.5C70.1653 29.1562 71.6497 30.4844 74.6184 30.4844C77.6184 30.4844 80.1575 29.6875 82.2356 28.0938V22.9844C80.095 22.6719 77.9544 22.5156 75.8138 22.5156Z" fill="#141414"/>
<path d="M106.534 34V0.484375H120.831C127.206 0.484375 130.393 3.08594 130.393 8.28906C130.393 12.1016 128.315 14.8281 124.159 16.4688C128.596 17.2969 130.815 19.8359 130.815 24.0859C130.815 30.6953 127.323 34 120.338 34H106.534ZM120.081 30.4844C124.081 30.4844 126.081 28.4531 126.081 24.3906C126.081 20.4375 123.401 18.4609 118.042 18.4609H116.167V15.625C122.573 14.7656 125.776 12.4531 125.776 8.6875C125.776 5.5625 123.995 4 120.432 4H110.87V30.4844H120.081Z" fill="#FF81AE"/>
<path d="M138.761 29.6641C139.866 29.6641 140.761 30.5595 140.761 31.6641V32C140.761 33.1046 139.866 34 138.761 34H138.425C137.32 34 136.425 33.1046 136.425 32V31.6641C136.425 30.5595 137.32 29.6641 138.425 29.6641H138.761Z" fill="#FF81AE"/>
</svg>
