<svg width="145" height="38" viewBox="0 0 145 38" fill="none" xmlns="http://www.w3.org/2000/svg">
<path d="M5.08594 38.0001H0.585938L14.8125 4.48444H19.6172L33.9141 38.0001H29.1094L24.7734 27.4532H13.6875L14.8828 23.9376H23.3203L17.0625 8.75006L5.08594 38.0001Z" fill="#141414"/>
<path d="M38.3756 38.0001V13.3907H41.3053L42.0788 16.5313C44.5944 14.4376 47.36 13.3907 50.3756 13.3907C56.5163 13.3907 59.5866 16.4454 59.5866 22.5547V38.0001H55.2506V22.4844C55.2506 18.8282 53.4303 17.0001 49.7897 17.0001C47.3053 17.0001 44.9459 18.0391 42.7116 20.1172V38.0001H38.3756Z" fill="#141414"/>
<path d="M65.8294 30.5704C65.8294 25.5235 69.1575 23.0001 75.8138 23.0001C77.9544 23.0001 80.095 23.1563 82.2356 23.4688V21.1485C82.2356 18.3204 80.0247 16.9063 75.6028 16.9063C73.0716 16.9063 70.4778 17.2969 67.8216 18.0782V14.5626C70.4778 13.7813 73.0716 13.3907 75.6028 13.3907C82.9153 13.3907 86.5716 15.9376 86.5716 21.0313V38.0001H84.1341L82.6341 35.5626C80.1809 37.1876 77.5091 38.0001 74.6184 38.0001C68.7591 38.0001 65.8294 35.5235 65.8294 30.5704ZM75.8138 26.5157C72.0481 26.5157 70.1653 27.8438 70.1653 30.5001C70.1653 33.1563 71.6497 34.4844 74.6184 34.4844C77.6184 34.4844 80.1575 33.6876 82.2356 32.0938V26.9844C80.095 26.6719 77.9544 26.5157 75.8138 26.5157Z" fill="#141414"/>
<path d="M106.773 0.560059H122.469C124.837 0.560059 126.885 0.976059 128.613 1.80806C130.341 2.60806 131.685 3.71206 132.645 5.12006C133.605 6.52806 134.085 8.14406 134.085 9.96806C134.085 12.0801 133.653 13.8401 132.789 15.2481C131.957 16.6241 130.821 17.4721 129.381 17.7921L129.429 17.9361C130.389 18.0001 131.381 18.4321 132.405 19.2321C133.461 20.0001 134.341 21.0721 135.045 22.4481C135.781 23.8241 136.149 25.4881 136.149 27.4401C136.149 29.4881 135.637 31.3121 134.613 32.9121C133.621 34.4801 132.165 35.7281 130.245 36.6561C128.357 37.5521 126.069 38.0001 123.381 38.0001H106.773V0.560059ZM123.381 35.6961C126.613 35.6961 129.157 34.9441 131.013 33.4401C132.901 31.9041 133.845 29.9041 133.845 27.4401C133.845 26.0001 133.493 24.6241 132.789 23.3121C132.117 21.9681 131.189 20.8641 130.005 20.0001C128.821 19.1041 127.509 18.5921 126.069 18.4641L125.877 17.7921C127.477 17.4721 128.693 16.8801 129.525 16.0161C130.389 15.1521 130.981 14.1761 131.301 13.0881C131.621 11.9681 131.781 10.9281 131.781 9.96806C131.781 7.82406 130.917 6.11206 129.189 4.83206C127.461 3.52006 125.221 2.86406 122.469 2.86406H109.077V35.6961H123.381ZM113.205 5.31206H121.125C123.013 5.31206 124.581 5.88806 125.829 7.04006C127.077 8.19206 127.701 9.71206 127.701 11.6001C127.701 13.3921 127.157 14.8481 126.069 15.9681C124.981 17.0561 123.397 17.6001 121.317 17.6001H113.205V5.31206ZM121.317 15.2961C122.629 15.2961 123.637 14.9601 124.341 14.2881C125.045 13.6161 125.397 12.7201 125.397 11.6001C125.397 10.3841 124.981 9.42406 124.149 8.72006C123.349 7.98406 122.341 7.61606 121.125 7.61606H115.509V15.2961H121.317ZM113.205 19.7121H121.893C124.165 19.7121 126.021 20.3041 127.461 21.4881C128.933 22.6721 129.669 24.2721 129.669 26.2881C129.669 28.3681 128.997 30.0161 127.653 31.2321C126.341 32.4481 124.501 33.0561 122.133 33.0561H113.205V19.7121ZM122.133 30.7521C123.733 30.7521 124.997 30.3681 125.925 29.6001C126.885 28.8001 127.365 27.6961 127.365 26.2881C127.365 24.9121 126.837 23.8561 125.781 23.1201C124.757 22.3841 123.461 22.0161 121.893 22.0161H115.509V30.7521H122.133Z" fill="#FF81AE"/>
<path d="M142.765 33.6641C143.962 33.6641 144.933 34.6348 144.933 35.8321V35.8321C144.933 37.0294 143.962 38.0001 142.765 38.0001V38.0001C141.568 38.0001 140.597 37.0294 140.597 35.8321V35.8321C140.597 34.6348 141.568 33.6641 142.765 33.6641V33.6641Z" fill="#FF81AE"/>
</svg>
